<svg width="25" height="24" viewBox="0 0 25 24" fill="none" xmlns="http://www.w3.org/2000/svg">
<g clip-path="url(#clip0_665_10470)">
<path d="M7.03689 21.0564C5.52264 21.0564 4.08262 21.0564 2.62775 21.0564C0.920505 21.0564 0.0149225 20.1356 0.0149225 18.3998C0.0149225 13.8564 0.0594594 9.29786 7.69297e-05 4.75447C-0.0296143 2.92805 1.1135 1.84126 2.71682 1.96202C2.88012 1.97711 3.04343 1.94692 3.20673 1.93183C3.4591 0.482771 3.84509 -0.000248038 4.69129 -0.000248038C5.52264 -0.000248038 5.89378 0.497865 6.17585 1.94692C8.50661 1.94692 10.8671 1.94692 13.1978 1.94692C13.4502 0.497865 13.8659 -0.0304367 14.7269 -0.000248038C15.5583 0.0299406 15.974 0.573337 16.1521 1.93183C16.3599 1.94692 16.5678 1.96202 16.7905 1.96202C18.4383 1.97711 19.3439 2.88277 19.3587 4.54315C19.3736 7.04881 19.3587 9.55447 19.3587 12.0752C19.3587 12.5431 19.3587 13.0111 19.3587 13.5696C19.819 13.5696 20.2346 13.5696 20.6503 13.5696C21.6153 13.5696 22.5802 13.5545 23.5452 13.5696C24.4359 13.5696 24.9852 14.113 25.0001 15.0035C25.0149 17.5092 25.0149 20.0148 25.0001 22.5356C25.0001 23.4262 24.4508 23.9847 23.5601 23.9847C18.5274 23.9998 13.5096 23.9998 8.47692 23.9847C7.57134 23.9847 7.05174 23.4262 7.03689 22.4903C7.03689 22.0375 7.03689 21.5847 7.03689 21.0564ZM18.5571 6.59598C12.6188 6.59598 6.73998 6.59598 0.861122 6.59598C0.831431 6.67145 0.816585 6.70164 0.816585 6.74692C0.816585 10.7469 0.80174 14.7469 0.816585 18.7469C0.816585 19.6526 1.45495 20.2413 2.34568 20.2715C3.11765 20.3016 3.90447 20.2715 4.67644 20.2715C5.44841 20.2715 6.22039 20.2715 7.02205 20.2715C7.02205 18.5356 7.02205 16.8752 7.02205 15.2148C7.02205 14.0828 7.51195 13.5847 8.61053 13.5847C11.7133 13.5847 14.8011 13.5847 17.9039 13.5847C18.0969 13.5847 18.3047 13.5847 18.5422 13.5847C18.5571 11.2299 18.5571 8.9356 18.5571 6.59598ZM16.0185 23.1998C18.468 23.1998 20.9175 23.1998 23.3671 23.1998C24.05 23.1998 24.2133 23.0337 24.2133 22.3394C24.2133 19.9696 24.2133 17.5847 24.2133 15.2148C24.2133 14.5356 24.05 14.3847 23.3968 14.3847C18.4829 14.3847 13.569 14.3847 8.65507 14.3847C7.94248 14.3847 7.80887 14.5054 7.80887 15.245C7.80887 17.5998 7.80887 19.9545 7.80887 22.3092C7.80887 23.079 7.94248 23.2148 8.72929 23.2148C11.164 23.1998 13.5987 23.1998 16.0185 23.1998ZM14.0589 2.32428C14.0589 2.65636 13.9846 3.03371 14.0886 3.3356C14.1776 3.57711 14.4745 3.90919 14.6824 3.90919C14.8902 3.90919 15.2614 3.57711 15.2762 3.3507C15.3504 2.70164 15.3504 2.03749 15.2762 1.38843C15.2465 1.17711 14.8754 0.845035 14.6675 0.845035C14.4597 0.845035 14.1925 1.17711 14.0886 1.43371C13.9846 1.69032 14.0589 2.02239 14.0589 2.32428ZM4.05293 2.32428C4.05293 2.64126 4.03808 2.95824 4.05293 3.29032C4.06777 3.68277 4.32015 3.98466 4.67644 3.90919C4.91397 3.8639 5.24058 3.56202 5.27027 3.3356C5.35934 2.70164 5.3148 2.06768 5.29996 1.41862C5.28511 1.02617 5.03274 0.784658 4.64675 0.799752C4.26077 0.814846 4.05293 1.08654 4.05293 1.479C4.03808 1.76579 4.05293 2.05258 4.05293 2.32428Z" fill="#141414"/>
<path d="M2.00439 10.4753C2.00439 10.0678 2.00439 9.64513 2.00439 9.23759C2.00439 8.73947 2.25677 8.46777 2.76152 8.46777C3.60772 8.46777 4.46877 8.46777 5.31496 8.46777C5.81972 8.46777 6.05724 8.73947 6.05724 9.23759C6.05724 10.098 6.05724 10.9734 6.05724 11.8338C6.05724 12.3319 5.80487 12.6036 5.30012 12.6036C4.45392 12.6036 3.59287 12.6036 2.74667 12.6036C2.24192 12.6036 2.00439 12.3168 2.00439 11.8187C2.00439 11.381 2.00439 10.9282 2.00439 10.4753Z" fill="#141414"/>
<path d="M6.07199 16.3018C6.07199 16.7396 6.07199 17.1622 6.07199 17.5999C6.05715 18.0829 5.81962 18.3245 5.34456 18.3396C4.46867 18.3396 3.60762 18.3396 2.73173 18.3396C2.25667 18.3396 2.01914 18.0679 2.0043 17.5999C1.98945 16.7094 1.98945 15.8339 2.0043 14.9433C2.0043 14.4603 2.27152 14.2188 2.73173 14.2037C3.60762 14.1886 4.46867 14.1886 5.34456 14.2037C5.81962 14.2037 6.05715 14.4754 6.07199 14.9433C6.07199 15.3962 6.07199 15.849 6.07199 16.3018Z" fill="#141414"/>
<path d="M11.8615 10.5508C11.8615 10.9886 11.8615 11.4112 11.8615 11.8489C11.8615 12.3169 11.624 12.6037 11.1638 12.6188C10.2731 12.6339 9.38233 12.6339 8.49159 12.6188C8.04622 12.6188 7.80869 12.332 7.79385 11.8942C7.779 10.9886 7.779 10.0829 7.79385 9.19234C7.80869 8.72442 8.09076 8.48291 8.55097 8.48291C9.39717 8.48291 10.2582 8.48291 11.1044 8.48291C11.5943 8.48291 11.8467 8.75461 11.8467 9.25272C11.8615 9.67536 11.8615 10.1131 11.8615 10.5508ZM9.61986 10.6414C9.36748 10.4603 9.23387 10.2791 9.10026 10.2942C8.92211 10.3093 8.75881 10.4452 8.59551 10.5357C8.83304 10.8527 9.02603 11.215 9.3081 11.4716C9.39717 11.5471 9.75347 11.4414 9.91677 11.3056C10.2434 11.0339 10.5551 10.732 10.8075 10.3999C10.9263 10.2339 11.0302 9.87159 10.9411 9.75083C10.7184 9.44895 10.4512 9.66027 10.2582 9.87159C10.0207 10.1131 9.8277 10.3848 9.61986 10.6414Z" fill="#141414"/>
<path d="M17.6516 10.5658C17.6516 10.9734 17.6664 11.396 17.6516 11.8036C17.6367 12.3621 17.4141 12.6036 16.8796 12.6187C16.0483 12.6338 15.2169 12.6187 14.3707 12.6187C13.866 12.6187 13.5987 12.3621 13.5839 11.864C13.569 10.9583 13.569 10.0526 13.5839 9.14698C13.5987 8.69415 13.8511 8.45264 14.2965 8.45264C15.1724 8.45264 16.0334 8.45264 16.9093 8.45264C17.3844 8.45264 17.6219 8.70924 17.6367 9.19226C17.6516 9.66018 17.6516 10.113 17.6516 10.5658ZM16.8351 9.29792C15.9889 9.29792 15.2021 9.29792 14.4004 9.29792C14.4004 10.1432 14.4004 10.9583 14.4004 11.7885C15.2318 11.7885 16.0186 11.7885 16.8351 11.7885C16.8351 10.9432 16.8351 10.1432 16.8351 9.29792Z" fill="#141414"/>
<path d="M16.0184 15.4565C17.7553 15.4565 19.5071 15.4565 21.244 15.4565C21.6449 15.4565 21.9418 15.5018 22.0457 16.015C22.0902 16.2565 22.4168 16.5282 22.6841 16.6188C23.0255 16.7395 23.1888 16.8905 23.1888 17.2376C23.1888 18.2791 23.1888 19.3056 23.1888 20.3471C23.1888 20.6942 23.0552 20.8603 22.6989 20.981C22.4317 21.0716 22.1051 21.3584 22.0457 21.6301C21.9269 22.1282 21.6449 22.1433 21.2737 22.1433C18.4382 22.1433 15.6027 22.1433 12.7523 22.1433C12.0694 22.1433 11.3865 22.1282 10.6888 22.1433C10.3028 22.1584 10.095 22.0225 9.97621 21.615C9.88714 21.3433 9.59023 21.0716 9.32301 20.9659C9.01125 20.8452 8.86279 20.7244 8.86279 20.3773C8.87764 19.3207 8.86279 18.264 8.86279 17.2074C8.86279 16.8754 8.98156 16.7395 9.30816 16.6037C9.59023 16.4829 9.90199 16.1961 9.99106 15.9244C10.1247 15.532 10.3325 15.4414 10.6888 15.4414C12.4554 15.4565 14.2369 15.4565 16.0184 15.4565ZM14.0588 19.0188C14.1478 19.3056 14.2517 19.8791 14.5041 20.3622C15.0683 21.449 16.2856 21.6452 17.117 20.8603C18.171 19.849 18.1561 17.7207 17.1021 16.7244C16.4489 16.1056 15.5582 16.1056 14.905 16.7244C14.326 17.2678 14.133 17.9622 14.0588 19.0188ZM20.8877 18.7471C20.8432 18.3546 20.6354 18.098 20.2197 18.0829C19.8189 18.0678 19.5071 18.3848 19.5219 18.7923C19.5368 19.1848 19.8634 19.5018 20.2494 19.4716C20.6651 19.4414 20.858 19.1848 20.8877 18.7471ZM11.7577 19.4867C12.2031 19.4867 12.5593 19.1546 12.5148 18.7773C12.4851 18.3697 12.2476 18.1282 11.8319 18.098C11.4311 18.0829 11.1193 18.3999 11.1342 18.8074C11.1639 19.215 11.4014 19.4414 11.7577 19.4867Z" fill="#141414"/>
<path d="M15.0684 19.5322L15.3059 18.9888C15.5137 19.1095 15.7809 19.185 16.0333 19.185C16.2412 19.185 16.3154 19.1397 16.3154 19.0642C16.3154 18.7774 15.0981 19.0039 15.0981 18.1737C15.0981 17.7661 15.4395 17.4189 16.1224 17.4189C16.4193 17.4189 16.7162 17.4793 16.9538 17.6152L16.7311 18.1586C16.5084 18.0529 16.3154 17.9925 16.1224 17.9925C15.8997 17.9925 15.8403 18.0529 15.8403 18.1284C15.8403 18.4001 17.0577 18.1737 17.0577 18.9888C17.0577 19.3963 16.7162 19.7435 16.0333 19.7435C15.6622 19.7586 15.291 19.668 15.0684 19.5322Z" fill="#141414"/>
</g>
<defs>
<clipPath id="clip0_665_10470">
<rect width="25" height="24" fill="white"/>
</clipPath>
</defs>
</svg>
