<svg width="20" height="23" viewBox="0 0 20 23" fill="none" xmlns="http://www.w3.org/2000/svg">
<path d="M2.23819 13.1561L2.85548 20.403C2.91721 20.7812 2.48511 21.0332 2.17646 20.9072C1.80609 20.7181 1.37399 21.0962 1.49744 21.4743C1.6209 21.9785 1.74436 22.4196 1.86782 22.8607C1.86782 22.8607 1.31226 23.0498 1.31226 22.9867C0.880154 22.2936 -0.0457796 21.2853 0.139407 20.8442C2.48511 16.1179 0.756696 11.1395 1.1888 6.28721C1.25053 5.34195 0.571509 4.33368 0.509781 3.3254C0.386323 2.63222 0.571509 1.81299 0.633238 1.05679C0.694967 0.80472 0.941883 0.615668 1.25053 0.678685C1.86782 0.80472 2.54683 0.930754 3.16412 0.993771C3.41104 1.05679 3.59623 1.30886 3.5345 1.56093V1.62394C3.47277 1.93903 3.22585 2.12808 2.97894 2.06506C2.85548 2.00205 2.67029 2.00205 2.54683 1.93903C2.17646 1.81299 1.86782 1.62394 1.74436 1.56093C2.053 4.45971 2.36165 7.3585 2.67029 10.3833C2.67029 10.6354 2.91721 10.8244 3.16412 10.8244H8.90491C9.21356 10.8244 9.46047 10.5724 9.39874 10.2573C9.02837 7.86264 8.658 5.59402 8.41108 3.26239C8.34935 2.5692 8.53454 1.81299 8.71973 1.05679C8.78145 0.80472 9.02837 0.615668 9.27528 0.678685C9.89257 0.80472 10.5099 0.930754 11.1272 1.05679C11.3741 1.11981 11.5593 1.37187 11.4975 1.68696V1.74998C11.4358 2.00205 11.1272 2.1911 10.8802 2.12808C10.6951 2.06506 10.5716 2.00205 10.3864 2.00205C10.0778 1.87601 9.70739 2.1911 9.76912 2.50618C10.016 4.52273 10.3864 6.47626 10.2012 8.42979C10.016 11.5176 11.8679 11.1395 13.7198 11.2025C15.7568 11.2656 17.6087 11.2656 17.1149 8.36678C16.8062 6.66531 16.3741 4.96385 16.1889 3.26239C16.1889 2.44317 16.4976 1.62394 16.7445 0.930754C16.8062 0.678685 17.1149 0.552651 17.3618 0.615668C17.9791 0.80472 18.5346 0.993771 19.1519 1.18282C19.3988 1.24584 19.584 1.56093 19.4606 1.81299C19.3371 2.06506 19.0902 2.1911 18.7815 2.06506L18.5964 2.00205C18.226 1.81299 17.8556 2.06506 17.8556 2.44317C18.0408 5.34195 18.226 8.30376 18.4112 11.6437C18.4112 11.9588 18.226 12.1478 17.9173 12.1478C16.0655 12.1478 14.584 12.2738 13.1642 12.0848C10.7568 11.8327 9.9543 12.904 10.2629 15.1726C10.5099 16.8741 10.7568 18.6386 10.942 20.4661C11.0037 20.8442 10.6333 21.1593 10.2629 21.0332C10.2012 20.9702 10.0778 20.9702 10.016 20.9072C9.64566 20.7812 9.27529 21.0962 9.33702 21.4743L9.46047 22.2936C9.46047 22.2936 9.33702 22.7977 9.0901 22.8607C8.84318 22.9237 8.59627 22.7347 8.53454 22.4196C8.41108 21.6004 8.28762 20.7812 8.34935 20.0249C8.41108 19.3318 9.02837 18.7646 9.15183 18.0714C10.016 12.5259 8.90491 11.3916 2.60856 12.5259C2.42338 12.6519 2.23819 12.904 2.23819 13.1561Z" fill="#D97E00"/>
</svg>
