<svg width="24" height="24" viewBox="0 0 24 24" fill="none" xmlns="http://www.w3.org/2000/svg">
<path d="M23.2537 4.08559C23.9502 4.77705 24.2034 5.84568 23.8235 6.78859C23.0637 8.61154 23.317 10.7488 20.5944 10.9374C20.0245 11.0002 19.518 12.006 19.0114 12.5089C18.2516 13.3261 17.4285 14.0804 16.6687 14.8347C16.5421 14.9604 16.1622 14.8976 16.0989 15.0233C14.2627 17.1606 12.5531 19.4235 10.5903 21.4351C9.45056 22.5666 7.86763 23.4466 6.28471 23.9495C4.19524 24.5781 -0.680173 19.1721 0.0796317 17.0348C0.712802 15.2119 0.77612 12.7603 3.75202 12.8861C4.06861 12.8861 4.44851 12.1946 4.70178 11.7546C4.82841 11.5031 4.70178 11.0002 4.89173 10.8745C6.98119 8.86298 9.07065 6.85145 11.2234 4.90277C11.7933 4.39989 12.933 4.02273 12.9963 3.51984C13.1863 -0.000342006 16.7953 -0.314644 18.1883 0.188239C20.0878 0.816844 21.6074 2.45122 23.2537 4.08559ZM20.4677 10.1202C20.8476 9.80589 21.3542 9.42873 21.7974 9.36586C21.8607 9.36586 21.924 8.0458 22.0507 7.85721C22.2406 7.29147 22.6205 6.66287 22.7471 6.03426C22.8738 5.3428 22.4939 4.71419 21.924 4.33703C20.7843 3.45698 19.8346 1.57117 18.6949 1.50831C16.732 1.38259 14.2627 1.50831 13.8194 4.58847C13.7561 5.21708 12.743 5.59424 12.2365 5.84568C11.54 6.2857 10.8435 6.72573 10.2737 7.29147C8.05758 9.42873 6.91788 12.7603 3.87866 14.0175C1.34597 15.0862 0.839436 17.3491 1.15602 18.2292C1.85251 19.9893 3.56207 21.6865 5.33495 22.6294C6.15807 23.0694 8.37417 22.1894 9.32392 21.2465C11.4134 19.1721 13.0596 16.7205 14.9591 14.4576C15.2757 14.0804 16.0989 14.0804 16.6054 13.7661C17.3652 13.2632 17.935 12.3832 18.5682 11.8174C19.0748 11.3145 19.6446 10.8745 20.2145 10.4345C20.2145 10.2459 20.3411 10.1831 20.4677 10.1202Z" fill="#D97E00"/>
<path d="M16.7319 10.0573C15.3389 10.8745 14.5158 11.6917 13.8193 11.6917C13.1861 11.6917 12.0464 10.4345 12.1731 10.0573C12.4263 9.303 13.3128 8.23438 14.0093 8.17152C14.5791 8.10865 15.4022 9.11442 16.7319 10.0573Z" fill="#D97E00"/>
<path d="M12.4897 13.9547C11.2234 14.8976 10.5269 15.7776 9.76706 15.8405C9.19721 15.9034 7.93086 14.6462 8.0575 14.269C8.24745 13.5147 9.07057 12.5718 9.83038 12.3203C10.3369 12.1946 11.2234 13.1375 12.4897 13.9547Z" fill="#D97E00"/>
<path d="M8.31086 18.3549C7.04452 19.1092 6.2214 20.0522 5.65154 19.9264C4.89174 19.7379 4.3852 18.6692 3.75203 18.0406C4.3852 17.4749 5.08169 16.4062 5.65154 16.4691C6.41135 16.4691 7.10784 17.412 8.31086 18.3549Z" fill="#D97E00"/>
<path d="M20.4043 5.84567C19.0113 6.66286 18.1882 7.48004 17.4917 7.48004C16.8586 7.48004 15.7189 6.22283 15.8455 5.84567C16.0988 5.09135 16.9852 4.02272 17.6817 3.95986C18.3149 3.897 19.0747 4.90276 20.4043 5.84567Z" fill="#D97E00"/>
</svg>
