<svg width="24" height="22" viewBox="0 0 24 22" fill="none" xmlns="http://www.w3.org/2000/svg">
<path d="M20.9448 14.7059C20.9448 14.7059 18.3896 17.3865 18.3896 19.0294C18.3896 19.6847 18.6588 20.3131 19.138 20.7764C19.6172 21.2397 20.2671 21.5 20.9448 21.5C21.6225 21.5 22.2724 21.2397 22.7516 20.7764C23.2308 20.3131 23.5 19.6847 23.5 19.0294C23.5 17.3865 20.9448 14.7059 20.9448 14.7059ZM3.32669 12.8529L9.4464 6.93588L15.5661 12.8529M17.8275 11.5435L6.40571 0.5L4.60429 2.24176L7.64498 5.18176L1.06534 11.5435C0.311554 12.2353 0.311554 13.4335 1.06534 14.1624L8.09214 20.9565C8.46264 21.3147 8.96091 21.5 9.4464 21.5C9.93188 21.5 10.4301 21.3147 10.8007 20.9565L17.8275 14.1624C18.5812 13.4335 18.5812 12.2353 17.8275 11.5435Z" fill="#D97E00"/>
</svg>
