<svg width="24" height="24" viewBox="0 0 24 24" fill="none" xmlns="http://www.w3.org/2000/svg">
<path d="M13.9998 13.4948C21.491 7.8214 23.5078 5.05563 22.1393 3.06995C19.5462 5.69388 16.881 8.38874 14.2879 11.0127C13.9998 10.729 13.6397 10.3744 13.3515 10.0907C15.8726 7.32498 18.3937 4.55921 20.9147 1.79344C20.5546 1.43885 20.2665 1.15518 19.9063 0.800596C17.0971 3.2827 14.36 5.83572 11.5508 8.31782C11.2627 8.03415 11.0466 7.8214 10.7584 7.53773C13.4956 4.98471 16.0167 2.21894 19.114 0.0914249C19.7623 -0.404995 22.4994 1.2261 23.5799 2.43169C24.2281 3.14087 24.0841 5.3393 23.4358 6.33214C22.2113 8.17598 20.3385 9.59433 18.6818 11.1545C16.881 12.9274 15.1523 14.4876 15.5845 17.6789C16.0887 20.7992 10.6864 24.2033 6.58067 23.9905C3.12321 23.8487 -0.334255 20.2319 0.025898 16.8988C0.31402 13.4948 1.53854 10.2326 4.85194 8.74332C8.09331 7.32498 10.5423 9.38158 12.7033 11.58C13.2075 12.0764 13.4956 12.7856 13.9998 13.4948ZM6.79676 22.714C10.0381 22.7849 14.432 19.8773 14.5761 17.537C14.7921 14.7004 9.96611 9.66524 6.86879 9.59433C4.20366 9.52341 1.39447 13.1402 1.25041 16.8279C1.10635 19.6646 3.91554 22.6431 6.79676 22.714Z" fill="#D97E00"/>
</svg>
