<svg width="26" height="16" viewBox="0 0 26 16" fill="none" xmlns="http://www.w3.org/2000/svg">
<path d="M12.9386 15.5C12.8809 15.5 12.8809 15.5 12.8231 15.5C9.53081 15.1457 6.18076 14.9685 2.88848 14.378C2.57353 14.3284 2.34684 14.1958 2.1429 13.993C1.43334 13.2878 0.982422 12.3075 0.982422 11.3071C2.02209 2.56693 4.21695 0.559055 12.7653 0.5C13.2274 0.5 13.7472 0.5 14.2093 0.5C22.4689 0.795276 25.2349 3.49213 25.0039 13C25.0039 13.2362 24.7215 14.3189 24.4327 14.3189C20.6784 14.6732 16.8662 15.0866 12.9386 15.5ZM12.8809 14.2008C16.4042 13.9055 19.9275 13.4921 23.4508 13.315C23.7396 13.315 23.9129 13.0787 23.9129 12.7835C22.8732 3.51181 21.8913 2.03543 13.8628 1.85827C13.2852 1.85827 12.7076 1.79921 12.13 1.79921C4.79454 1.97638 3.40831 3.21654 2.36865 10.6575C2.36865 11.0915 2.29721 11.5201 2.27517 11.9535C2.22096 13.0201 2.8447 13.3329 4.21695 13.4331C7.04715 13.6102 9.93512 13.9055 12.7653 14.2008C12.8231 14.2008 12.8231 14.2008 12.8809 14.2008Z" fill="#D97E00"/>
<path d="M12.7746 5.93006C13.0794 6.21423 12.6813 6.65049 12.3863 6.94478C10.6973 8.6296 9.04791 10.3514 7.35128 12.0291C7.33742 12.0421 7.32241 12.0543 7.30645 12.0657C6.9338 12.3321 6.51218 11.8724 6.17715 11.56C6.00941 11.4036 6.00941 11.1429 6.17715 10.9344L11.8242 5.61729C11.9919 5.4609 12.3274 5.4609 12.4951 5.61729L12.7746 5.93006Z" fill="#D97E00"/>
<path d="M9.38409 4.62307C8.48968 5.99395 7.63786 7.30521 6.74345 8.67608C6.61568 8.85489 6.36013 8.9145 6.23236 8.67608L6.14718 8.55688C6.0194 8.37807 6.0194 8.08005 6.14718 7.84164L8.873 3.96744C9.00077 3.78863 9.25632 3.78863 9.38409 3.96744C9.51186 4.14625 9.51186 4.44427 9.38409 4.62307Z" fill="#D97E00"/>
</svg>
