<svg width="20" height="24" viewBox="0 0 20 24" fill="none" xmlns="http://www.w3.org/2000/svg">
<path d="M15.6815 0L15.2021 0.900277L16.415 2.77795L16.0012 5.05725L17.6649 7.63298L18.5925 6.97036L18.4512 10.1459L18.4561 10.146L18.004 19.0449C17.9416 19.9253 17.579 20.1684 17.3154 20.1693C17.0525 20.1704 16.6535 19.9102 16.5378 19.0231L15.7583 7.54714L15.7569 7.53515C15.6753 6.84581 15.415 6.26533 14.9227 5.92549C14.5013 5.6346 13.9769 5.52283 13.3224 5.49657V5.13099C13.3224 3.95085 13.1333 3.2668 12.7714 2.88291C12.4097 2.49902 11.7708 2.2992 10.6453 2.31089H4.40038C3.27902 2.31089 2.63633 2.51137 2.27292 2.89352C1.90945 3.27577 1.71887 3.95167 1.71887 5.13099V21.5388H0.5V24H14.5414V21.5388H13.3225V6.42172C13.8699 6.45095 14.2307 6.55185 14.4411 6.69706C14.6916 6.87006 14.8211 7.10962 14.885 7.6439L15.6648 19.1249L15.6668 19.1392C15.8186 20.325 16.5152 21.0954 17.3187 21.0923C18.1222 21.0892 18.7962 20.293 18.8794 19.1116L18.8797 19.1069L19.3384 10.0782L19.3329 10.0779L19.5 6.32204L19.435 5.81063L15.6816 0H15.6815ZM17.1124 3.85769L18.4625 5.94743L17.8977 6.35096L16.9314 4.85477L17.1124 3.85769ZM2.84023 4.31054H12.2011V8.4125H2.84023V4.31054ZM3.6203 9.59182H11.4211V10.5148H3.6203V9.59182ZM3.6203 11.2326H11.4211V12.1555H3.6203V11.2326Z" fill="#D97E00"/>
</svg>
