<svg width="22" height="18" viewBox="0 0 22 18" fill="none" xmlns="http://www.w3.org/2000/svg">
<path d="M21.5 7.58333V13.25C21.5 13.4379 21.4309 13.618 21.3078 13.7509C21.1847 13.8837 21.0178 13.9583 20.8438 13.9583C20.6697 13.9583 20.5028 13.8837 20.3797 13.7509C20.2566 13.618 20.1875 13.4379 20.1875 13.25V11.125H18.875V12.5417C18.875 12.9174 18.7367 13.2777 18.4906 13.5434C18.2444 13.8091 17.9106 13.9583 17.5625 13.9583H16.5215L13.625 17.0847C13.5036 17.2169 13.359 17.3216 13.1997 17.3929C13.0405 17.4642 12.8696 17.5006 12.6972 17.5H7.33402C7.1616 17.5006 6.99079 17.4642 6.83151 17.3929C6.67224 17.3216 6.52769 17.2169 6.40625 17.0847L3.50973 13.9583C3.38732 13.8273 3.29027 13.6712 3.22422 13.4993C3.15818 13.3274 3.12445 13.143 3.125 12.9569V11.125H1.8125V13.25C1.8125 13.4379 1.74336 13.618 1.62029 13.7509C1.49722 13.8837 1.3303 13.9583 1.15625 13.9583C0.982202 13.9583 0.815282 13.8837 0.692211 13.7509C0.56914 13.618 0.5 13.4379 0.5 13.25V7.58333C0.5 7.39547 0.56914 7.2153 0.692211 7.08246C0.815282 6.94963 0.982202 6.875 1.15625 6.875C1.3303 6.875 1.49722 6.94963 1.62029 7.08246C1.74336 7.2153 1.8125 7.39547 1.8125 7.58333V9.70833H3.125V4.75C3.125 4.37428 3.26328 4.01394 3.50942 3.74826C3.75556 3.48259 4.0894 3.33333 4.4375 3.33333H9.6875V1.91667H7.71875C7.5447 1.91667 7.37778 1.84204 7.25471 1.7092C7.13164 1.57636 7.0625 1.39619 7.0625 1.20833C7.0625 1.02047 7.13164 0.840304 7.25471 0.707466C7.37778 0.574628 7.5447 0.5 7.71875 0.5H12.9688C13.1428 0.5 13.3097 0.574628 13.4328 0.707466C13.5559 0.840304 13.625 1.02047 13.625 1.20833C13.625 1.39619 13.5559 1.57636 13.4328 1.7092C13.3097 1.84204 13.1428 1.91667 12.9688 1.91667H11V3.33333H12.6972C12.8696 3.33274 13.0405 3.36914 13.1997 3.44043C13.359 3.51172 13.5036 3.61647 13.625 3.74859L16.5215 6.875H17.5625C17.9106 6.875 18.2444 7.02425 18.4906 7.28993C18.7367 7.55561 18.875 7.91594 18.875 8.29166V9.70833H20.1875V7.58333C20.1875 7.39547 20.2566 7.2153 20.3797 7.08246C20.5028 6.94963 20.6697 6.875 20.8438 6.875C21.0178 6.875 21.1847 6.94963 21.3078 7.08246C21.4309 7.2153 21.5 7.39547 21.5 7.58333Z" fill="#D97E00"/>
</svg>
