<svg width="24" height="24" viewBox="0 0 24 24" fill="none" xmlns="http://www.w3.org/2000/svg">
<path d="M13.8113 17.7928C13.8113 17.7928 13.5526 18.3692 13.8113 18.3692C13.8113 18.3692 14.5876 18.9775 15.1051 19.4514C15.6226 19.9253 16.3989 19.9253 16.9164 19.6884C17.6927 19.4514 18.2102 18.9775 18.7278 18.5036C19.7628 17.7928 20.7978 17.3189 21.8329 16.845C22.6092 18.0297 23.1267 19.2145 23.1267 20.3992C23.1267 21.584 22.8679 23.0057 21.8329 23.7166L21.5741 23.9535H21.3154C20.2803 23.4796 19.504 22.5318 18.7278 21.821C17.6927 20.8731 16.3989 20.3992 15.1051 20.8731C14.5876 21.347 14.0701 22.0579 13.8113 22.7688C13.2938 23.4796 12.7763 24.1905 11.7412 23.9535C10.965 23.9535 10.7062 23.2427 10.1887 22.7688C9.92992 22.2949 9.67116 21.821 9.15364 21.347C8.1186 20.6362 6.56604 20.8731 5.531 21.584C4.49596 22.2949 3.71968 23.2427 2.68464 23.7166C2.42588 23.7166 2.16712 23.9535 2.16712 23.7166C1.90836 23.7166 1.6496 23.4796 1.6496 23.2427C0.614555 21.347 0.355795 19.2145 1.6496 17.3189C1.6496 17.0819 1.90836 17.0819 1.90836 16.845C2.16712 16.845 2.42588 16.845 2.68464 16.845C3.46092 17.0819 4.2372 17.5558 4.75472 18.2667C5.27224 18.9775 6.04852 19.4514 6.8248 19.6884C7.60108 19.9253 8.63612 19.6884 9.15364 19.2145C9.67116 18.7406 9.67116 18.0297 9.67116 17.5558C10.4474 14.4754 10.965 11.3951 10.965 8.31469C10.965 7.12993 10.7062 5.47126 9.67116 4.99736C8.63612 4.2865 7.08356 4.76041 6.04852 5.23431C5.01348 5.70821 3.97844 6.41907 2.68464 6.89298C2.42588 6.89298 1.90836 7.12993 1.6496 6.89298C1.13208 6.89298 1.13208 6.65602 0.873315 6.18212C0.097035 5.23431 -0.161725 3.8126 0.0970351 2.39089C0.355795 1.68003 0.614555 0.969174 1.13208 0.49527C1.6496 0.0213659 2.68464 -0.215586 3.46092 0.258318C4.49596 0.732222 4.75472 2.15393 5.78976 2.86479C6.30728 3.10174 7.08356 3.10174 7.85984 2.86479C8.63612 2.62784 9.4124 2.62784 9.92992 2.39089C11.2237 2.15393 12.7763 2.15393 14.0701 2.39089C14.8464 2.62784 15.6226 2.86479 16.1402 2.86479C16.9164 2.86479 17.6927 2.86479 18.2102 2.62784C18.9865 2.15393 18.9865 1.20613 19.7628 0.732222C20.5391 0.021366 22.3504 0.258318 23.1267 1.20613C23.903 2.15393 24.1617 3.33869 23.903 4.2865C23.903 5.23431 23.3854 5.94517 22.8679 6.65602C22.3504 7.36688 20.7978 7.36688 20.0216 6.89298C19.2453 6.41907 18.9865 5.47126 18.469 4.76041C17.434 3.8126 15.8814 4.04955 14.8464 4.76041" fill="#D97E00"/>
</svg>
