<svg width="26" height="26" viewBox="0 0 26 26" fill="none" xmlns="http://www.w3.org/2000/svg">
<path d="M13.0001 25.1561C6.29655 25.1561 0.84375 19.7033 0.84375 13.0001C0.84375 6.29697 6.29655 0.84375 13.0001 0.84375C19.7037 0.84375 25.1565 6.29697 25.1565 13.0001C25.1561 19.7033 19.7033 25.1561 13.0001 25.1561ZM13.0001 2.39965C7.15499 2.39965 2.39965 7.15499 2.39965 13.0001C2.39965 18.8453 7.15499 23.6006 13.0001 23.6006C18.8453 23.6006 23.6006 18.8453 23.6006 13.0001C23.6006 7.15499 18.8453 2.39965 13.0001 2.39965Z" fill="#D97E00"/>
<path fill-rule="evenodd" clip-rule="evenodd" d="M19.0809 19.5011C18.8028 19.5011 18.5331 19.3869 18.3346 19.1934C18.1407 18.9954 18.0273 18.7261 18.0273 18.4475C18.0273 18.1689 18.1411 17.8992 18.3346 17.7012C18.7269 17.3092 19.4345 17.3092 19.8264 17.7012C20.0249 17.8992 20.134 18.1689 20.134 18.4475C20.134 18.7261 20.0245 18.9954 19.8264 19.1934C19.6288 19.3869 19.3595 19.5011 19.0809 19.5011Z" fill="#D97E00"/>
<path d="M20.4471 16.5085C19.8946 16.331 19.5874 15.7373 19.7686 15.1848C19.9456 14.6285 20.5398 14.3251 21.0919 14.5067C21.6481 14.6837 21.9516 15.2775 21.7746 15.8295C21.6313 16.2767 21.2141 16.5628 20.7716 16.5628C20.6616 16.5628 20.5562 16.5464 20.4471 16.5085ZM4.21764 15.8089C4.04065 15.2526 4.34871 14.6622 4.90035 14.4852C5.45663 14.3082 6.04704 14.6121 6.22404 15.1679C6.22404 15.1679 6.22404 15.1679 6.22826 15.1679C6.40525 15.72 6.09719 16.3142 5.54555 16.4912C5.43598 16.5249 5.33062 16.5418 5.22105 16.5418C4.77392 16.5418 4.36135 16.2552 4.21764 15.8089ZM20.0716 12.2474C20.0088 11.6659 20.4302 11.1475 21.0076 11.0885C21.5845 11.0295 22.1033 11.4467 22.1665 12.0241C22.2255 12.6057 21.8079 13.124 21.2267 13.183C21.1888 13.1872 21.1551 13.1872 21.1171 13.1872C20.5862 13.1872 20.1264 12.7869 20.0716 12.2474ZM4.76971 13.1619C4.19236 13.0987 3.77515 12.5804 3.83836 12.003C3.89736 11.4215 4.41993 11.0042 4.99728 11.0675C5.57463 11.1307 5.99142 11.649 5.93284 12.2264C5.87384 12.77 5.41491 13.1704 4.88349 13.1704C4.84557 13.1704 4.80764 13.1662 4.76971 13.1619ZM19.1571 9.44077C18.8621 8.93927 19.0349 8.29449 19.5406 8.00371C20.0421 7.71293 20.6869 7.8815 20.9777 8.38721C21.268 8.8887 21.0999 9.53348 20.5942 9.82426C20.4298 9.92119 20.2486 9.96755 20.0674 9.96755C19.705 9.96755 19.351 9.7779 19.1571 9.44077ZM5.41027 9.8074C4.9092 9.51241 4.74021 8.86763 5.03141 8.36614C5.32641 7.86043 5.97077 7.69186 6.47268 7.98685C6.97375 8.27764 7.14696 8.92242 6.85154 9.42812C6.65769 9.76105 6.30369 9.95069 5.94169 9.95069C5.76005 9.95069 5.57884 9.90433 5.41027 9.8074ZM17.1811 7.24936C17.1811 7.24936 17.1811 7.24936 17.1764 7.24936C16.7091 6.90801 16.6037 6.24638 16.9446 5.7786C17.2902 5.3066 17.9476 5.20125 18.4196 5.54681C18.8874 5.88817 18.9928 6.54559 18.6514 7.01758C18.4453 7.29993 18.1246 7.45165 17.7963 7.45165C17.581 7.45165 17.3661 7.38422 17.1811 7.24936ZM7.3661 7.00072C7.02433 6.53294 7.12968 5.87131 7.59788 5.52996C8.06988 5.1886 8.73109 5.29396 9.07287 5.76595C9.41422 6.23795 9.30465 6.89537 8.83645 7.23672C8.64723 7.37158 8.43188 7.439 8.21695 7.439C7.89288 7.439 7.56796 7.28729 7.3661 7.00072ZM14.4835 6.04831C14.4835 6.04831 14.4835 6.04831 14.4835 6.04409C13.9146 5.92609 13.5522 5.3656 13.6744 4.79668C13.7924 4.22776 14.3529 3.86533 14.9218 3.98755C15.4907 4.10554 15.8574 4.66604 15.7351 5.23496C15.6298 5.73224 15.1915 6.06938 14.7031 6.06938C14.631 6.06938 14.5594 6.06095 14.4835 6.04831ZM10.2819 5.22653C10.1639 4.65761 10.5306 4.10133 11.0991 3.97912C11.6684 3.86112 12.2243 4.22776 12.3465 4.79668C12.4645 5.3656 12.1021 5.92188 11.5331 6.04409C11.4573 6.05674 11.3856 6.06516 11.314 6.06516C10.826 6.06516 10.3873 5.72381 10.2819 5.22653Z" fill="#D97E00"/>
<path fill-rule="evenodd" clip-rule="evenodd" d="M6.91879 19.5011C6.64065 19.5011 6.36673 19.3869 6.17287 19.1934C5.97438 18.9954 5.86523 18.7261 5.86523 18.4475C5.86523 18.1689 5.9748 17.8992 6.17287 17.7012C6.56058 17.3092 7.26857 17.3092 7.66008 17.7012C7.85857 17.8992 7.97193 18.1689 7.97193 18.4475C7.97193 18.7261 7.85815 18.9954 7.66471 19.1934C7.46664 19.3869 7.19272 19.5011 6.91879 19.5011Z" fill="#D97E00"/>
<path fill-rule="evenodd" clip-rule="evenodd" d="M6.47017 23.0938C6.18613 23.0938 5.91263 22.9378 5.77567 22.6673C5.58139 22.2838 5.73437 21.8156 6.11829 21.6213C10.2339 19.5369 15.7651 19.5361 19.8803 21.6205C20.2634 21.8143 20.4168 22.2821 20.2229 22.6656C20.0286 23.0491 19.5613 23.2021 19.1774 23.0082C15.4819 21.1375 10.5171 21.1379 6.82122 23.0099C6.70786 23.0664 6.58817 23.0938 6.47017 23.0938Z" fill="#D97E00"/>
<path fill-rule="evenodd" clip-rule="evenodd" d="M12.999 13.7774C12.7996 13.7774 12.6007 13.7016 12.4486 13.5495C12.1447 13.246 12.1447 12.7534 12.4486 12.4495L16.5195 8.37859C16.8234 8.07432 17.3165 8.07432 17.6199 8.37859C17.9237 8.68244 17.9237 9.17508 17.6199 9.47851L13.5489 13.5495C13.3972 13.702 13.1979 13.7774 12.999 13.7774Z" fill="#D97E00"/>
<path fill-rule="evenodd" clip-rule="evenodd" d="M13.0004 14.4769C12.6122 14.4769 12.2334 14.3163 11.9552 14.0428C11.6813 13.7693 11.5254 13.3896 11.5254 13.0019C11.5254 12.61 11.6809 12.2307 11.9552 11.9568C12.5073 11.4089 13.4934 11.4089 14.0413 11.9568C14.3194 12.2307 14.4754 12.6142 14.4754 13.0019C14.4754 13.3896 14.3194 13.7693 14.0413 14.0428C13.7669 14.3163 13.3881 14.4769 13.0004 14.4769Z" fill="#D97E00"/>
<path fill-rule="evenodd" clip-rule="evenodd" d="M15.1415 18.7618H10.8561C10.4262 18.7618 10.0781 18.4133 10.0781 17.9834C10.0781 17.5536 10.4262 17.2051 10.8561 17.2051H15.1415C15.5714 17.2051 15.9195 17.5536 15.9195 17.9834C15.9195 18.4133 15.571 18.7618 15.1415 18.7618Z" fill="#D97E00"/>
</svg>
