<svg width="43" height="44" viewBox="0 0 43 44" fill="none" xmlns="http://www.w3.org/2000/svg">
<rect x="0.5" y="0.714294" width="42" height="42" rx="3.5" fill="white"/>
<path d="M8 18.6216C8.10553 18.0897 8.2666 17.5802 8.63873 17.1602C9.11639 16.6171 9.70513 16.2812 10.4272 16.27C12.2045 16.2476 13.9818 16.2476 15.7592 16.242C16.509 16.2364 17.2588 16.2364 18.0086 16.242C19.5582 16.2476 20.6469 17.3954 20.6969 18.952C20.7413 20.2678 19.897 21.5836 18.1753 21.8243C15.6314 22.1827 13.1098 22.6306 10.5827 23.0449C9.9995 23.1401 9.78289 23.3977 9.76623 23.9856C9.75512 24.2824 9.75512 24.5847 9.75512 24.8815C9.75512 24.9263 9.76067 24.9767 9.77178 25.0494C13.3987 25.0494 17.02 25.0494 20.6635 25.0494C20.6635 25.6486 20.6635 26.2197 20.6635 26.83C20.5413 26.83 20.4191 26.83 20.3025 26.83C16.3202 26.83 12.3434 26.83 8.36102 26.83C8.24438 26.83 8.12219 26.8468 8.00555 26.858C8.00555 25.7773 8.00555 24.6911 8.00555 23.6105C8.06665 23.3865 8.10553 23.1569 8.1944 22.9442C8.62207 21.8971 9.44964 21.4212 10.5272 21.2532C13.0487 20.8613 15.5648 20.4469 18.0808 20.0382C18.7473 19.9318 19.0084 19.5455 18.9417 18.8176C18.9029 18.4144 18.564 17.9945 17.8975 18.0001C15.637 18.0225 13.382 18.0057 11.1214 18.0113C10.9382 18.0113 10.7493 18.0057 10.566 18.0281C10.0773 18.0729 9.794 18.3696 9.77734 18.868C9.76623 19.1647 9.77734 19.4559 9.77734 19.7806C9.5996 19.7806 9.48297 19.7806 9.36633 19.7806C8.91644 19.7862 8.461 19.7974 8.01111 19.8086C8 19.4055 8 19.0136 8 18.6216Z" fill="black"/>
<path d="M29.6391 26.8076C28.3727 26.8076 27.1008 26.8356 25.8345 26.802C24.4015 26.7628 23.3517 25.6821 23.3295 24.232C23.3073 22.4514 23.3018 20.6709 23.3295 18.8848C23.3517 17.3562 24.3793 16.2868 25.8956 16.27C28.4227 16.2364 30.9499 16.242 33.4715 16.27C34.8822 16.2868 35.9431 17.3506 35.9708 18.7784C36.0097 20.6149 36.0097 22.4514 35.9708 24.288C35.9431 25.6989 34.8933 26.746 33.4937 26.7908C32.2107 26.8356 30.9276 26.802 29.6391 26.8076C29.6391 26.802 29.6391 26.802 29.6391 26.8076ZM29.6835 18.0113C28.4894 18.0113 27.2952 18.0057 26.1011 18.0113C25.3679 18.0169 25.0791 18.2857 25.068 19.0191C25.0513 20.7101 25.0513 22.3954 25.0735 24.0864C25.0791 24.7639 25.3901 25.0494 26.0622 25.0494C28.4616 25.055 30.8554 25.055 33.2548 25.0494C33.9269 25.0494 34.2324 24.7639 34.2379 24.0808C34.2546 22.3842 34.2546 20.6821 34.2379 18.9856C34.2324 18.2857 33.938 18.0113 33.2382 18.0057C32.0496 18.0001 30.8666 18.0113 29.6835 18.0113Z" fill="black"/>
<path d="M30.5722 12.7761C30.1778 13.1792 29.7946 13.5656 29.4002 13.9631C27.3285 12.0034 24.8791 10.9228 21.9854 10.9284C19.1084 10.934 16.6645 11.9978 14.6095 13.9575C14.2207 13.5656 13.8319 13.1792 13.4486 12.7929C17.3921 8.44794 25.4957 7.61926 30.5722 12.7761Z" fill="#D97E00"/>
<path d="M14.615 29.1144C16.6701 31.0685 19.1195 32.138 22.0132 32.138C24.8903 32.1324 27.3341 31.0685 29.3891 29.1144C29.7835 29.5064 30.1723 29.8927 30.5611 30.2735C26.4343 34.7472 18.3419 35.3295 13.4375 30.3015C13.8263 29.9039 14.2151 29.512 14.615 29.1144Z" fill="#D97E00"/>
<rect x="0.5" y="0.714294" width="42" height="42" rx="3.5" stroke="#F6F6F6"/>
</svg>
