<svg width="18" height="14" viewBox="0 0 18 14" fill="none" xmlns="http://www.w3.org/2000/svg">
<path d="M9 11.375C9.255 11.375 9.4689 11.291 9.6417 11.123C9.8145 10.955 9.9006 10.7473 9.9 10.5C9.9 10.2521 9.8136 10.0441 9.6408 9.87612C9.468 9.70812 9.2544 9.62442 9 9.625C8.745 9.625 8.5311 9.709 8.3583 9.877C8.1855 10.045 8.0994 10.2527 8.1 10.5C8.1 10.7479 8.1864 10.9559 8.3592 11.1239C8.532 11.2919 8.7456 11.3756 9 11.375ZM9 7.875C9.255 7.875 9.4689 7.791 9.6417 7.623C9.8145 7.455 9.9006 7.24733 9.9 7C9.9 6.75208 9.8136 6.54413 9.6408 6.37613C9.468 6.20813 9.2544 6.12442 9 6.125C8.745 6.125 8.5311 6.209 8.3583 6.377C8.1855 6.545 8.0994 6.75267 8.1 7C8.1 7.24792 8.1864 7.45588 8.3592 7.62388C8.532 7.79188 8.7456 7.87558 9 7.875ZM9 4.375C9.255 4.375 9.4689 4.291 9.6417 4.123C9.8145 3.955 9.9006 3.74733 9.9 3.5C9.9 3.25208 9.8136 3.04413 9.6408 2.87613C9.468 2.70813 9.2544 2.62442 9 2.625C8.745 2.625 8.5311 2.709 8.3583 2.877C8.1855 3.045 8.0994 3.25267 8.1 3.5C8.1 3.74792 8.1864 3.95588 8.3592 4.12388C8.532 4.29188 8.7456 4.37558 9 4.375ZM16.2 14H1.8C1.305 14 0.881101 13.8285 0.528301 13.4855C0.175501 13.1425 -0.000598472 12.7307 1.52801e-06 12.25V8.75C0.495001 8.75 0.918901 8.5785 1.2717 8.2355C1.6245 7.8925 1.8006 7.48067 1.8 7C1.8 6.51875 1.6236 6.10663 1.2708 5.76363C0.918001 5.42063 0.494401 5.24942 1.52801e-06 5.25V1.75C1.52801e-06 1.26875 0.176402 0.856626 0.529201 0.513626C0.882001 0.170626 1.3056 -0.000581848 1.8 1.48557e-06H16.2C16.695 1.48557e-06 17.1189 0.171501 17.4717 0.514501C17.8245 0.857501 18.0006 1.26933 18 1.75V5.25C17.505 5.25 17.0811 5.4215 16.7283 5.7645C16.3755 6.1075 16.1994 6.51933 16.2 7C16.2 7.48125 16.3764 7.89337 16.7292 8.23637C17.082 8.57938 17.5056 8.75058 18 8.75V12.25C18 12.7312 17.8236 13.1434 17.4708 13.4864C17.118 13.8294 16.6944 14.0006 16.2 14Z" fill="#141414"/>
</svg>
