<svg width="32" height="24" viewBox="0 0 32 24" fill="none" xmlns="http://www.w3.org/2000/svg">
<path fill-rule="evenodd" clip-rule="evenodd" d="M15.5256 0C12.4928 0 9.72917 0.99475 8.09423 1.80748C7.94651 1.88082 7.80887 1.95283 7.68063 2.02217C7.42682 2.15951 7.21062 2.28752 7.03874 2.4002L8.89861 5.11909L9.77415 5.46512C13.1958 7.17926 17.7843 7.17926 21.2066 5.46512L22.2004 4.95308L23.9595 2.4002C23.5951 2.16418 23.2161 1.95107 22.8248 1.76215C21.1986 0.95808 18.5014 0 15.5256 0ZM11.1996 3.07759C10.541 2.95521 9.89053 2.79312 9.25178 2.59222C10.7833 1.91683 13.0662 1.2001 15.525 1.2001C17.2284 1.2001 18.8392 1.54413 20.1713 1.98017C18.6102 2.19818 16.9444 2.56821 15.3571 3.02359C14.1083 3.38228 12.6486 3.34361 11.1996 3.07759ZM21.9157 6.45387L21.7512 6.53654C17.9864 8.42203 12.9937 8.42203 9.22895 6.53654L9.07318 6.45787C3.41837 12.6191 -0.898939 24 15.5256 24C31.9489 24 27.5262 12.4064 21.9157 6.45387ZM14.8274 12.001C14.4712 12.001 14.1296 12.1415 13.8778 12.3916C13.626 12.6416 13.4845 12.9808 13.4845 13.3344C13.4845 13.6881 13.626 14.0273 13.8778 14.2773C14.1296 14.5274 14.4712 14.6679 14.8274 14.6679V12.001ZM16.1702 10.6676V10.0008H14.8274V10.6676C14.1151 10.6676 13.4319 10.9485 12.9283 11.4487C12.4246 11.9488 12.1416 12.6271 12.1416 13.3344C12.1416 14.0417 12.4246 14.7201 12.9283 15.2202C13.4319 15.7204 14.1151 16.0013 14.8274 16.0013V18.6682C14.5496 18.6683 14.2787 18.5829 14.052 18.4237C13.8252 18.2645 13.6537 18.0395 13.561 17.7795C13.5017 17.6127 13.3782 17.4762 13.2175 17.3999C13.0568 17.3237 12.8722 17.3139 12.7043 17.3728C12.5364 17.4317 12.3989 17.5544 12.3221 17.7139C12.2453 17.8735 12.2354 18.0568 12.2947 18.2235C12.4799 18.7435 12.8229 19.1938 13.2765 19.5122C13.73 19.8307 14.2719 20.0017 14.8274 20.0017V20.6684H16.1702V20.0017C16.8825 20.0017 17.5656 19.7207 18.0693 19.2206C18.573 18.7204 18.856 18.0421 18.856 17.3348C18.856 16.6275 18.573 15.9491 18.0693 15.449C17.5656 14.9489 16.8825 14.6679 16.1702 14.6679V12.001C16.7544 12.001 17.2519 12.371 17.4372 12.8897C17.4647 12.9746 17.5091 13.0531 17.5677 13.1207C17.6262 13.1882 17.6979 13.2434 17.7783 13.283C17.8588 13.3226 17.9464 13.3457 18.036 13.3511C18.1256 13.3564 18.2154 13.3439 18.3001 13.3142C18.3847 13.2845 18.4625 13.2382 18.5288 13.1782C18.5952 13.1181 18.6487 13.0454 18.6862 12.9645C18.7238 12.8835 18.7446 12.7959 18.7475 12.7067C18.7503 12.6176 18.7352 12.5289 18.7029 12.4457C18.5177 11.9257 18.1747 11.4754 17.7211 11.157C17.2675 10.8386 16.7257 10.6676 16.1702 10.6676ZM16.1702 16.0013V18.6682C16.5264 18.6682 16.8679 18.5277 17.1198 18.2777C17.3716 18.0276 17.5131 17.6884 17.5131 17.3348C17.5131 16.9811 17.3716 16.642 17.1198 16.3919C16.8679 16.1418 16.5264 16.0013 16.1702 16.0013Z" fill="#141414"/>
</svg>
