<svg width="21" height="17" viewBox="0 0 21 17" fill="none" xmlns="http://www.w3.org/2000/svg">
<path d="M14.3206 13.6281L10.6823 11.3324L7.04405 13.6281L8.14163 9.51584L4.79807 6.84084L9.11726 6.58133L10.6823 2.64869L12.2474 6.58133L16.5666 6.84084L13.223 9.51584M18.8126 8.83711C18.8126 8.30766 19.0267 7.79991 19.4079 7.42553C19.7891 7.05116 20.3061 6.84084 20.8451 6.84084V2.84831C20.8451 2.31887 20.631 1.81111 20.2498 1.43674C19.8686 1.06237 19.3516 0.852051 18.8126 0.852051H2.55209C2.01302 0.852051 1.49603 1.06237 1.11485 1.43674C0.733675 1.81111 0.519531 2.31887 0.519531 2.84831V6.84084C1.0586 6.84084 1.57559 7.05116 1.95677 7.42553C2.33795 7.79991 2.55209 8.30766 2.55209 8.83711C2.55209 9.36655 2.33795 9.87431 1.95677 10.2487C1.57559 10.623 1.0586 10.8334 0.519531 10.8334V14.8259C0.519531 15.3553 0.733675 15.8631 1.11485 16.2375C1.49603 16.6118 2.01302 16.8222 2.55209 16.8222H18.8126C19.3516 16.8222 19.8686 16.6118 20.2498 16.2375C20.631 15.8631 20.8451 15.3553 20.8451 14.8259V10.8334C20.3061 10.8334 19.7891 10.623 19.4079 10.2487C19.0267 9.87431 18.8126 9.36655 18.8126 8.83711Z" fill="#141414"/>
</svg>
